<svg width="51" height="50" viewBox="0 0 51 50" fill="none" xmlns="http://www.w3.org/2000/svg">
<path d="M12.5061 6.58301C13.2904 5.80557 14.5624 5.80576 15.3469 6.58301L17.6643 8.87988H20.9484C22.053 8.87988 22.9484 9.77531 22.9484 10.8799V14.1182L25.2648 16.415C26.0493 17.1926 26.0493 18.4529 25.2648 19.2305L22.9484 21.5264V24.7656C22.9484 25.8702 22.053 26.7656 20.9484 26.7656H17.6633L15.3469 29.0615C14.5624 29.8391 13.2905 29.8391 12.5061 29.0615L10.1897 26.7656H6.9045C5.80005 26.7655 4.9045 25.8701 4.9045 24.7656V21.5264L2.58809 19.2305C1.80392 18.453 1.80402 17.1926 2.58809 16.415L4.9045 14.1182V10.8799C4.9045 9.7754 5.80005 8.88002 6.9045 8.87988H10.1887L12.5061 6.58301Z" fill="#FF9E08"/>
<ellipse cx="13.8834" cy="17.7804" rx="6.13486" ry="6.08118" fill="#FCDC30"/>
<path d="M26.4774 10.8643C33.3047 10.8643 38.881 16.001 39.243 22.4678C39.2495 22.4678 39.2561 22.4678 39.2626 22.4678C45.5671 22.4678 50.6784 27.4623 50.6786 33.624C50.6786 39.7859 45.5672 44.7812 39.2626 44.7812H12.0936V44.7295C5.69373 44.1657 0.678703 38.9105 0.678589 32.5088C0.678589 25.7308 6.30019 20.2364 13.2352 20.2363C13.5072 20.2363 13.7772 20.2451 14.0448 20.2617C15.393 14.8708 20.4478 10.8643 26.4774 10.8643Z" fill="#D4EEFC"/>
</svg>
