<svg width="50" height="50" viewBox="0 0 50 50" fill="none" xmlns="http://www.w3.org/2000/svg">
<path d="M14.346 27.5714C14.346 31.6741 11.1345 35 7.17299 35C3.21146 35 0 31.6741 0 27.5714C0 23.4687 7.17299 15 7.17299 15C7.17299 15 14.346 23.4687 14.346 27.5714Z" fill="#8AD6FF"/>
<path d="M31.692 27.5714C31.692 31.6741 28.4805 35 24.519 35C20.5574 35 17.346 31.6741 17.346 27.5714C17.346 23.4687 24.519 15 24.519 15C24.519 15 31.692 23.4687 31.692 27.5714Z" fill="#8AD6FF"/>
<path d="M49.0379 27.5714C49.0379 31.6741 45.8265 35 41.8649 35C37.9034 35 34.692 31.6741 34.692 27.5714C34.692 23.4687 41.8649 15 41.8649 15C41.8649 15 49.0379 23.4687 49.0379 27.5714Z" fill="#8AD6FF"/>
</svg>
