<svg width="50" height="50" viewBox="0 0 50 50" fill="none" xmlns="http://www.w3.org/2000/svg">
<rect x="5.86349" y="17.6895" width="2.19877" height="14.6205" fill="#E2F5FF"/>
<rect width="2.2543" height="14.2773" transform="matrix(0.689687 0.724107 -0.689687 0.724107 11.0829 18.8438)" fill="#E2F5FF"/>
<rect width="2.2543" height="14.2773" transform="matrix(-0.689687 0.724107 0.689687 0.724107 2.65421 18.8438)" fill="#E2F5FF"/>
<rect x="13.9255" y="23.8447" width="2.3085" height="13.9255" transform="rotate(90 13.9255 23.8447)" fill="#E2F5FF"/>
<rect x="23.7889" y="17.6895" width="2.19877" height="14.6205" fill="#E2F5FF"/>
<rect width="2.2543" height="14.2773" transform="matrix(0.689687 0.724107 -0.689687 0.724107 29.0084 18.8438)" fill="#E2F5FF"/>
<rect width="2.2543" height="14.2773" transform="matrix(-0.689687 0.724107 0.689687 0.724107 20.5797 18.8438)" fill="#E2F5FF"/>
<rect x="31.8511" y="23.8447" width="2.3085" height="13.9255" transform="rotate(90 31.8511 23.8447)" fill="#E2F5FF"/>
<rect x="41.7144" y="17.6895" width="2.19877" height="14.6205" fill="#E2F5FF"/>
<rect width="2.2543" height="14.2773" transform="matrix(0.689687 0.724107 -0.689687 0.724107 46.9339 18.8438)" fill="#E2F5FF"/>
<rect width="2.2543" height="14.2773" transform="matrix(-0.689687 0.724107 0.689687 0.724107 38.5052 18.8438)" fill="#E2F5FF"/>
<rect x="49.7766" y="23.8447" width="2.3085" height="13.9255" transform="rotate(90 49.7766 23.8447)" fill="#E2F5FF"/>
</svg>
