<svg width="50" height="50" viewBox="0 0 50 50" fill="none" xmlns="http://www.w3.org/2000/svg">
<path d="M21.7876 1.40295C23.3497 -0.15901 25.8828 -0.159102 27.4448 1.40295L32.2446 6.20275H39.0298C41.2389 6.20275 43.0298 7.99362 43.0298 10.2028V16.9879L47.8286 21.7877C49.3907 23.3498 49.3907 25.8828 47.8286 27.4449L43.0298 32.2438V39.0299C43.0298 41.239 41.2389 43.0299 39.0298 43.0299H32.2437L27.4448 47.8287C25.8827 49.3908 23.3497 49.3908 21.7876 47.8287L16.9888 43.0299H10.2017C7.99267 43.0298 6.20168 41.239 6.20168 39.0299V32.2428L1.40285 27.4449C-0.159195 25.8829 -0.159097 23.3498 1.40285 21.7877L6.20168 16.9889V10.2028C6.20168 7.99371 7.99267 6.2029 10.2017 6.20275H16.9878L21.7876 1.40295Z" fill="#FF9E08"/>
<circle cx="25" cy="25" r="13" fill="#FCDC30"/>
</svg>
