<svg width="50" height="50" viewBox="0 0 50 50" fill="none" xmlns="http://www.w3.org/2000/svg">
<rect x="16.6332" y="24.8271" width="11.0889" height="16.5517" fill="#FFD451"/>
<path d="M40.197 31.3789L21.4846 49.9997V13.7598L40.197 31.3789Z" fill="#FFD451"/>
<path d="M25.7988 0C32.6261 0 38.2025 5.23017 38.5645 11.8145C38.571 11.8144 38.5775 11.8145 38.584 11.8145C44.8886 11.8145 50 16.9001 50 23.1738C49.9999 29.4475 44.8886 34.5332 38.584 34.5332H11.415V34.4805C5.0151 33.9063 0 28.5552 0 22.0371C0.000260003 15.1363 5.62179 9.54212 12.5566 9.54199C12.8285 9.54199 13.0986 9.55142 13.3662 9.56836C14.7143 4.07951 19.7692 6.19403e-05 25.7988 0Z" fill="#D4EEFC"/>
</svg>
